<?xml version="1.0" encoding="UTF-8"?>
<!DOCTYPE svg PUBLIC "-//W3C//DTD SVG 1.1//EN" "http://www.w3.org/Graphics/SVG/1.1/DTD/svg11.dtd">
<svg version="1.1" xmlns="http://www.w3.org/2000/svg" xmlns:xlink="http://www.w3.org/1999/xlink" x="0" y="0" width="100%" height="100%" viewBox="0, 0, 20, 20">
  <g id="Background">
    <rect x="0" y="0" width="20" height="20" fill="#FFFFFF" fill-opacity="0"/>
  </g>
  <g id="Layer_1">
    <g>
      <path d="M10.5,4.809 C10.686,4.809 10.871,4.974 10.871,4.974 L13.098,6.954 L12.603,6.954 C11.975,6.883 11.405,6.514 10.871,6.198 L10.871,14.802 C11.39,14.527 11.997,14.075 12.603,14.046 L13.098,14.046 L10.871,16.026 C10.871,16.026 10.686,16.191 10.5,16.191 C10.314,16.191 10.129,16.026 10.129,16.026 L7.902,14.046 L8.397,14.046 C9.025,14.117 9.595,14.486 10.129,14.802 L10.129,6.198 C9.61,6.473 9.003,6.925 8.397,6.954 L7.902,6.954 L10.129,4.974 L10.137,4.967 C10.242,4.879 10.364,4.823 10.5,4.809 z" fill="#333"/>
      <path d="M10.5,4.809 C10.686,4.809 10.871,4.974 10.871,4.974 L13.098,6.954 L12.603,6.954 C11.975,6.883 11.405,6.514 10.871,6.198 L10.871,14.802 C11.39,14.527 11.997,14.075 12.603,14.046 L13.098,14.046 L10.871,16.026 C10.871,16.026 10.686,16.191 10.5,16.191 C10.314,16.191 10.129,16.026 10.129,16.026 L7.902,14.046 L8.397,14.046 C9.025,14.117 9.595,14.486 10.129,14.802 L10.129,6.198 C9.61,6.473 9.003,6.925 8.397,6.954 L7.902,6.954 L10.129,4.974 L10.137,4.967 C10.242,4.879 10.364,4.823 10.5,4.809 z" fill-opacity="0" stroke="#333" stroke-width="0.1" stroke-linecap="round"/>
    </g>
  </g>
</svg>
